<svg width="60" height="82" viewBox="0 0 60 82" fill="none" xmlns="http://www.w3.org/2000/svg">
<path d="M16.3561 1.06411C16.1958 1.12425 15.845 1.30466 15.5944 1.46503C15.3438 1.61538 14.9429 1.81583 14.7023 1.89602C13.8103 2.20673 13.1488 2.98852 12.788 4.1612C12.4772 5.14345 12.5875 6.83732 12.9984 7.70932C13.1889 8.10021 14.0508 9.06242 14.2212 9.06242C14.3515 9.06242 14.3114 8.91207 14.101 8.65148C13.7802 8.25056 13.7602 8.23051 13.5397 7.75943C13.2691 7.19815 13.0486 5.70473 13.1388 4.9931C13.2891 3.70015 13.9005 2.74797 14.8326 2.34705C15.1133 2.21675 15.6044 1.95616 15.9051 1.7557C16.5065 1.3648 17.0277 1.30466 18.05 1.48508C18.6714 1.59533 18.6013 1.42494 17.9297 1.20444C17.2381 0.993954 16.6969 0.943839 16.3561 1.06411Z" fill="#303030" stroke="black" stroke-width="0.2"/>
<path d="M17.2079 2.41722C16.7569 2.4974 15.8047 2.96848 15.8047 3.11882C15.8047 3.21905 15.8548 3.22908 15.9851 3.15892C16.0753 3.1088 16.1856 3.06871 16.2357 3.05869C16.2758 3.04866 16.3159 3.04866 16.3359 3.03864C16.6867 2.89832 18.2403 2.90834 18.5109 3.04866C19.1724 3.38944 19.4931 3.89059 19.6134 4.76259C19.6836 5.22364 19.6535 5.5544 19.453 6.42639C19.1523 7.78951 18.992 8.18041 18.5409 8.73167C18.0598 9.32302 18.2002 9.41323 18.7615 8.86197C19.3127 8.32073 19.5332 7.8697 19.874 6.54667C20.315 4.79265 20.1145 3.69013 19.1924 2.90834C18.6111 2.4072 18.0398 2.26688 17.2079 2.41722Z" fill="#303030" stroke="black" stroke-width="0.2"/>
<path d="M19.9752 3.11882C20.3561 4.65233 20.3561 4.68239 20.1957 5.6446C20.1156 6.14574 20.0855 6.58675 20.1356 6.61682C20.2559 6.697 20.6167 5.84506 20.737 5.1635C20.7971 4.85278 20.8172 4.39173 20.7771 4.14116C20.6969 3.57987 20.2058 2.60765 19.9953 2.56756C19.8449 2.53749 19.8449 2.5876 19.9752 3.11882Z" fill="#303030" stroke="black" stroke-width="0.2"/>
<path d="M14.3619 4.38171C13.971 4.96304 13.9208 7.29838 14.2716 8.17038C14.442 8.61139 15.1837 9.21276 15.8152 9.43327C16.2963 9.59363 16.5168 9.50343 16.186 9.28292C15.4844 8.78178 14.9031 8.25056 14.7227 7.9198C14.5824 7.65921 14.5523 7.31843 14.5523 5.87513C14.5523 4.93297 14.5423 4.15118 14.5322 4.15118C14.5122 4.15118 14.442 4.25141 14.3619 4.38171Z" fill="#303030" stroke="black" stroke-width="0.2"/>
<path d="M14.9932 10.0647C14.9832 10.0948 14.9731 10.5859 14.9531 11.1672C14.903 13.0115 14.7226 14.3445 14.452 14.8757C14.1513 15.4671 13.3895 16.1486 12.3471 16.75C10.7936 17.6521 10.8838 17.3714 10.8838 21.561C10.8838 23.4052 10.9038 24.9387 10.9239 24.9688C11.0943 25.1392 11.2346 23.6358 11.2847 21.0899C11.3549 17.8626 11.3549 17.8626 12.1266 17.4717C12.8583 17.1008 13.8305 16.4293 14.2816 15.9883C14.9832 15.3067 15.2137 14.6853 15.2939 13.242C15.364 11.8889 15.2738 10.2952 15.1135 10.1349C15.0533 10.0747 15.0032 10.0447 14.9932 10.0647Z" fill="#303030" stroke="black" stroke-width="0.2"/>
<path d="M18.7818 10.1349C18.7517 10.175 18.7517 10.636 18.7718 11.1472C18.8019 12.1595 18.9622 12.5704 19.303 12.5704C19.4133 12.5704 19.5135 12.6105 19.5335 12.6506C19.5836 12.7909 20.4957 13.3723 21.067 13.6329C21.5582 13.8634 21.7185 13.8834 22.791 13.8634C24.104 13.8434 24.4849 13.9436 24.9459 14.4347C25.3569 14.8857 25.7878 15.8179 26.1286 17.0306C26.4694 18.2033 26.9204 19.0653 27.7924 20.238C28.3938 21.0498 28.925 22.0722 29.3961 23.3351C29.7369 24.2472 29.797 24.3674 29.8872 24.2772C29.9574 24.2071 29.3159 22.1925 28.9952 21.4708C28.8649 21.1801 28.5041 20.5587 28.1833 20.0876C27.2712 18.7245 26.8402 17.8625 26.5696 16.8703C26.0885 15.0461 25.4671 13.9837 24.6552 13.5727C24.2042 13.3422 24.0839 13.3222 22.9213 13.3522L21.6584 13.3823L20.9167 12.9914C19.1226 12.0492 19.2028 12.1294 19.0123 10.8665C18.9021 10.0948 18.872 9.99454 18.7818 10.1349Z" fill="#303030" stroke="black" stroke-width="0.2"/>
<path d="M4.27839 14.565C4.14809 14.6552 4.14809 14.6652 4.27839 14.7053C5.41098 15.0261 6.21281 15.3869 6.60371 15.7577C6.94449 16.0685 7.48573 17.3414 7.48573 17.8225C7.48573 18.0129 7.43561 18.2835 7.37547 18.4238L7.2552 18.6644L7.04472 18.4639C6.88435 18.3136 6.74403 18.2835 6.45336 18.3136C5.98229 18.3737 4.47885 18.9751 4.47885 19.0954C4.47885 19.2858 5.02008 19.2357 5.87203 18.9751C6.57364 18.7646 7.18504 18.7245 7.18504 18.8949C7.18504 18.9551 7.00463 19.1856 6.78412 19.4161C6.36316 19.8371 6.33309 19.9473 6.66385 19.8471C7.31534 19.6366 7.92674 18.6644 7.92674 17.8325C7.92674 17.1209 7.43561 15.8379 6.9946 15.3969C6.80417 15.2065 6.40325 14.9359 6.11258 14.8056C5.52123 14.5349 4.51894 14.4046 4.27839 14.565Z" fill="#303030" stroke="black" stroke-width="0.2"/>
<path d="M2.8451 15.1764C1.78267 15.8479 0.890626 16.9304 1.0109 17.4115C1.17127 18.063 2.28381 19.807 2.43416 19.6567C2.50432 19.5965 1.98313 18.1733 1.73255 17.7122C1.54212 17.3714 1.50202 17.2111 1.57219 17.0306C1.6223 16.9104 2.07333 16.3992 2.56446 15.9081C3.0656 15.417 3.47654 14.986 3.47654 14.9459C3.47654 14.8156 3.31618 14.8757 2.8451 15.1764Z" fill="#303030" stroke="black" stroke-width="0.2"/>
<path d="M22.8806 17.9728C22.8004 18.1031 22.9207 18.3938 23.0309 18.3236C23.081 18.2935 23.1211 18.3236 23.1211 18.3837C23.1211 18.4439 23.3416 18.7746 23.6223 19.1054C23.8929 19.4462 24.364 20.1979 24.6747 20.7792C25.4765 22.2927 27.0301 24.4476 27.0301 24.0367C27.0301 24.0066 26.7194 23.4554 26.3385 22.8039C25.9576 22.1624 25.3863 21.11 25.0756 20.4685C24.6847 19.6667 24.3539 19.1455 24.0232 18.8047C23.4318 18.1933 22.9507 17.8525 22.8806 17.9728Z" fill="#303030" stroke="black" stroke-width="0.2"/>
<path d="M4.08793 18.4339C3.68701 18.6243 3.28609 18.7847 3.18587 18.7847C3.09566 18.7847 2.86513 18.6744 2.6747 18.5341C2.04325 18.073 1.98311 18.2735 2.57447 18.8949C2.92527 19.2658 3.00545 19.3059 3.32619 19.2557C3.77722 19.1856 5.58135 18.3336 5.58135 18.1933C5.58135 17.9628 4.80958 18.0931 4.08793 18.4339Z" fill="#303030" stroke="black" stroke-width="0.2"/>
<path d="M11.9963 18.7847C11.9362 18.9049 11.9061 19.0252 11.9362 19.0553C11.9663 19.0954 11.9462 19.1756 11.8861 19.2457C11.7157 19.4562 11.6656 20.4084 11.8159 20.689C12.0364 21.11 12.5977 21.3104 13.5298 21.3104C14.5121 21.3205 15.1034 21.1701 15.4743 20.8394C15.805 20.5487 15.7449 20.5387 15.0032 20.7391C13.9508 21.0198 12.4975 20.8694 12.277 20.4585C12.2168 20.3282 12.1968 19.9874 12.2369 19.5464C12.307 18.7546 12.1968 18.4038 11.9963 18.7847Z" fill="#303030" stroke="black" stroke-width="0.2"/>
<path d="M22.6909 18.9751C22.5907 19.1856 22.3401 19.5665 22.1196 19.807C21.5583 20.4485 21.0972 20.5687 19.7742 20.3883C18.4612 20.2179 18.4712 20.2179 18.4311 20.3382C18.361 20.5287 19.8243 20.9095 20.6663 20.9196C21.3478 20.9296 21.5483 20.8895 21.9191 20.679C22.5205 20.3482 22.9314 19.7368 23.0016 19.0954C23.0517 18.484 22.9214 18.4339 22.6909 18.9751Z" fill="#303030" stroke="black" stroke-width="0.2"/>
<path d="M3.98809 19.6166C3.91793 19.797 3.83775 19.827 3.44685 19.797C2.84548 19.7669 2.42451 19.9874 2.17394 20.4886C1.94341 20.9296 1.90332 21.3305 2.10378 21.2703C2.16392 21.2403 2.3744 21.0298 2.56484 20.7792C2.88557 20.3583 3.3366 20.1378 3.97807 20.0977C4.15848 20.0876 4.43912 20.4886 4.30883 20.5788C4.17853 20.669 3.97807 21.6212 3.97807 22.1223C3.97807 22.6234 4.09834 22.8439 4.31885 22.7638C4.46919 22.7036 4.49926 22.4631 4.51931 20.9697L4.52933 20.699L4.7799 20.9396C5.32114 21.4608 5.49153 21.13 5.01043 20.4986C4.83002 20.258 4.69972 20.0375 4.72979 20.0075C4.78993 19.9373 5.86238 20.8694 6.05282 21.1601C6.14302 21.3004 6.24325 21.571 6.27332 21.7715C6.3535 22.2726 6.52389 22.2726 6.65419 21.7715C6.7444 21.4307 6.7444 21.2904 6.62412 21.0799C6.34348 20.5387 5.10064 19.6366 4.41908 19.4863C4.10837 19.4161 4.05825 19.4362 3.98809 19.6166Z" fill="#303030" stroke="black" stroke-width="0.2"/>
<path d="M23.5828 20.7492C23.5427 20.8995 23.4425 21.0799 23.3723 21.1601C23.2921 21.2403 23.222 21.3806 23.222 21.4708C23.222 21.571 23.1618 21.7314 23.0817 21.8417C22.8511 22.1724 22.4101 22.9943 22.4602 22.9943C22.4903 22.9943 22.4101 23.1547 22.2698 23.3451C22.1395 23.5456 21.9591 23.9164 21.8589 24.177C21.7687 24.4376 21.478 25.1893 21.2174 25.8508C20.9568 26.5124 20.7162 27.244 20.6862 27.4645C20.596 28.0058 20.7563 28.8076 21.2174 30.2108C21.6785 31.614 21.6885 31.6742 21.8188 33.1676C21.919 34.4405 22.1796 35.543 22.4602 35.974C22.7108 36.3549 22.771 36.2146 22.5805 35.6533C22.4101 35.1321 22.2698 34.0997 22.1295 32.3657C22.0593 31.5238 21.939 30.9525 21.6183 29.9602C21.037 28.1461 21.037 27.665 21.5882 26.3319C21.8288 25.7807 22.1395 24.9889 22.2798 24.5779C22.4302 24.177 22.6908 23.5456 22.8812 23.1847C23.3823 22.1824 23.9436 20.4886 23.7833 20.4886C23.7031 20.4886 23.6129 20.6088 23.5828 20.7492Z" fill="#303030" stroke="black" stroke-width="0.2"/>
<path d="M5.05034 21.551C4.93006 21.6713 4.97015 22.3328 5.13052 22.854C5.341 23.5355 5.33098 23.6257 5.06036 23.5456C4.83986 23.4754 3.45669 22.6335 2.48447 21.972C1.99334 21.6412 1.86305 21.6612 2.11362 22.0321C2.28401 22.3027 2.48447 22.4731 3.6772 23.3451C4.79977 24.167 5.17061 24.3374 5.51139 24.2071C5.75194 24.1169 5.78201 24.0567 5.77199 23.6257C5.76197 23.0544 5.3811 21.571 5.22073 21.5209C5.17061 21.5009 5.09043 21.5209 5.05034 21.551Z" fill="#303030" stroke="black" stroke-width="0.2"/>
<path d="M12.4675 21.7615C12.3672 21.9519 12.4975 23.0244 12.7381 23.8964C12.8884 24.4176 13.0287 25.2294 13.0588 25.7005C13.1089 26.4422 13.0788 26.6627 12.8383 27.4044C12.5276 28.3766 11.9062 30.5416 11.826 30.9124C11.8059 31.0527 11.7157 31.5038 11.6456 31.9147C11.5754 32.3256 11.4852 32.7466 11.4451 32.8368C11.3449 33.0874 11.4852 33.0573 11.836 32.7767C12.3171 32.4058 12.6278 32.5161 14.0511 33.6286C14.6825 34.1198 15.5144 34.5708 16.3563 34.8715C16.9878 35.102 17.058 35.1621 16.8575 35.3225C16.7372 35.4227 16.4967 35.3726 15.4844 35.0318C14.0411 34.5307 13.4998 34.2801 12.277 33.5585C11.5854 33.1475 11.3248 33.0473 11.1945 33.1175C10.9841 33.2277 10.8638 33.6487 10.944 33.9293C11.0241 34.1799 11.1945 34.0696 11.1945 33.7589C11.1945 33.4482 11.3649 33.4582 11.8059 33.779C13.0388 34.7011 15.2238 35.6232 16.1659 35.6232C16.5869 35.6232 16.6169 35.6432 16.5468 35.8437C16.4365 36.2045 16.4866 36.9362 16.657 37.1868C16.7372 37.3171 16.9878 37.5476 17.2083 37.6879C17.5491 37.9084 17.6894 37.9485 18.1104 37.9084C18.391 37.8784 18.7017 37.7781 18.812 37.6779C19.0425 37.4674 18.9723 37.287 18.7117 37.4273C18.391 37.5977 17.9199 37.5376 17.509 37.267C17.088 36.9863 17.0078 36.846 16.9878 36.3048C16.9778 35.8738 17.0379 35.7635 17.4188 35.5731C17.8197 35.3626 18.401 35.523 18.9222 35.994C19.3632 36.395 19.5336 36.3749 19.263 35.964L19.0926 35.7034L20.0448 35.7735C20.6963 35.8237 21.017 35.8136 21.0571 35.7334C21.0972 35.6733 21.0972 35.6232 21.0571 35.6232C21.027 35.6232 20.4457 35.5129 19.7742 35.3726C17.3386 34.8815 15.7149 34.22 14.2515 33.1175C13.2593 32.3557 12.6378 32.0951 12.1768 32.2254C12.0164 32.2655 11.8961 32.2755 11.8961 32.2455C11.8961 32.1051 12.6679 29.4691 13.0488 28.3065C13.6602 26.4522 13.7103 26.1315 13.5399 25.0991C13.4196 24.3273 12.6479 21.6913 12.5476 21.6913C12.5276 21.6913 12.4875 21.7214 12.4675 21.7615Z" fill="#303030" stroke="black" stroke-width="0.2"/>
<path d="M6.88379 22.8941C6.88379 22.9442 7.01409 23.1346 7.17445 23.315C7.3248 23.4954 7.79588 24.1169 8.21684 24.6982C8.71799 25.3998 9.38952 26.1415 10.2415 26.9433C10.9331 27.5948 11.5344 28.106 11.5645 28.0659C11.6246 28.0058 11.5845 27.9055 11.2438 27.3042C11.0634 26.9734 10.5722 26.4622 9.8606 25.8709C9.54989 25.6003 9.0287 25.039 8.71799 24.618C8.19679 23.8964 7.12434 22.7938 6.96397 22.7938C6.91386 22.7938 6.88379 22.8339 6.88379 22.8941Z" fill="#303030" stroke="black" stroke-width="0.2"/>
<path d="M5.88184 25.0089C5.88184 25.3096 7.71603 27.9256 8.57801 28.8377C9.1894 29.4892 9.96117 30.0605 10.743 30.4313C11.4746 30.7721 11.9557 30.7921 11.4446 30.4614C10.9635 30.1407 9.47005 28.998 9.0992 28.6673C8.91878 28.4969 8.16706 27.6048 7.42537 26.6928C6.09232 25.0189 5.88184 24.7884 5.88184 25.0089Z" fill="#303030" stroke="black" stroke-width="0.2"/>
<path d="M27.5619 25.921C27.5619 25.9912 27.3514 26.4823 27.1008 27.0035C26.8503 27.5347 26.5095 28.2964 26.3491 28.7074C26.1887 29.1183 25.8379 29.9302 25.5773 30.5115C25.1865 31.3634 24.124 34.3403 24.124 34.5608C24.124 34.5908 24.1641 34.6209 24.2142 34.6209C24.3245 34.6209 24.8557 33.5184 25.1965 32.5662C25.3368 32.1753 25.6676 31.4336 25.9282 30.9124C26.8503 29.0582 27.8325 26.4823 27.8325 25.931C27.8325 25.8609 27.7724 25.8007 27.7022 25.8007C27.622 25.8007 27.5619 25.8609 27.5619 25.921Z" fill="#303030" stroke="black" stroke-width="0.2"/>
<path d="M29.7664 27.1238C29.6061 27.3843 29.4758 27.6049 28.7942 28.8276C28.4133 29.4992 27.9523 30.271 27.7719 30.5315C27.1404 31.4336 26.2885 33.4182 26.4689 33.5885C26.519 33.6286 26.5791 33.6086 26.6092 33.5284C26.8097 32.9471 27.6316 31.5038 28.1628 30.7921C28.8544 29.86 29.4858 28.6974 29.8166 27.7251C29.9368 27.3843 30.0371 27.0837 30.0371 27.0536C30.0371 26.9534 29.8466 27.0035 29.7664 27.1238Z" fill="#303030" stroke="black" stroke-width="0.2"/>
<path d="M10.2714 34.8113C10.1311 34.9216 9.89054 35.2924 9.73018 35.6432C9.45956 36.2346 9.43951 36.3549 9.43951 37.4975C9.43951 38.8807 9.49965 39.021 10.3015 39.5923C10.9229 40.0233 11.1234 40.5846 11.1334 41.8875C11.1434 42.529 11.0933 43.0101 11.0031 43.2106C10.8828 43.5012 10.8227 43.5413 10.4819 43.5413C10.2714 43.5413 9.79031 43.4311 9.40944 43.2907C8.68779 43.0301 8.09644 42.9399 8.58756 43.1705C8.72788 43.2306 8.85818 43.3108 8.88825 43.3409C8.98848 43.4511 9.53974 43.6716 9.67004 43.6516C9.73018 43.6415 9.79031 43.6816 9.79031 43.7418C9.79031 43.7919 9.82038 43.832 9.8705 43.822C9.91059 43.8119 10.0409 43.852 10.1511 43.9222C10.4719 44.0926 11.0131 43.9923 11.2637 43.6917C11.6045 43.3008 11.7247 42.6994 11.6646 41.637C11.5944 40.4142 11.394 39.8228 10.8728 39.4018C9.83041 38.5599 9.94066 38.7904 9.94066 37.4574C9.94066 36.3449 9.9607 36.2446 10.2413 35.6733C10.4117 35.3325 10.6222 35.0619 10.7224 35.0419C10.8127 35.0218 11.3338 35.2123 11.8751 35.4628C12.7771 35.8838 14.1804 36.3248 14.6214 36.3248C14.9922 36.3248 14.7817 36.1444 14.2806 36.0141C13.6391 35.8637 13.3384 35.7435 12.0555 35.112C10.963 34.5708 10.6423 34.5207 10.2714 34.8113Z" fill="#303030" stroke="black" stroke-width="0.2"/>
<path d="M25.9183 35.2924C25.8481 35.4929 25.8481 35.6833 25.9183 35.9439C26.0486 36.3649 25.9584 37.0765 25.6276 38.3695C25.4071 39.2214 25.367 39.7326 25.5174 39.7326C25.7379 39.7326 26.5297 37.0465 26.5297 36.3348C26.5197 36.1344 26.4595 35.8637 26.3794 35.7234C26.2992 35.5831 26.239 35.3726 26.229 35.2423C26.229 34.9316 26.0486 34.9617 25.9183 35.2924Z" fill="#303030" stroke="black" stroke-width="0.2"/>
<path d="M23.2713 35.8838C22.9807 36.1945 22.8203 36.8961 22.8203 37.8784C22.8203 38.4396 22.8604 38.6601 22.9907 38.7804C23.1511 38.9408 23.1711 38.9408 23.3415 38.7303C23.562 38.4597 23.572 38.3294 23.3616 38.3294C23.2313 38.3294 23.2212 38.2392 23.2814 37.7481C23.3114 37.4373 23.4317 36.846 23.5319 36.4351C23.6422 36.0241 23.7224 35.6733 23.7224 35.6533C23.7224 35.543 23.4718 35.6633 23.2713 35.8838Z" fill="#303030" stroke="black" stroke-width="0.2"/>
<path d="M24.0837 36.9462C23.8832 37.6278 23.6828 38.4697 23.6326 38.8907L23.5725 39.4018L21.9688 38.8806C21.0868 38.6 20.1747 38.2693 19.9442 38.149C19.413 37.8683 19.2225 37.8683 19.4631 38.1289C19.7939 38.4998 20.6458 38.9007 22.2695 39.482C23.1515 39.7927 24.0536 40.1335 24.2841 40.2438C24.5046 40.344 24.7552 40.4342 24.8454 40.4342C24.9356 40.4342 25.106 40.5244 25.2363 40.6246C25.4568 40.795 25.4668 40.8451 25.3566 41.1258C25.2263 41.4866 25.3265 41.6069 25.547 41.3563C26.0381 40.8051 25.8377 40.324 24.9557 39.913C24.5748 39.7326 24.234 39.5522 24.1939 39.492C24.1238 39.3918 24.1338 39.1012 24.2942 37.5175C24.3242 37.1467 24.3042 36.9262 24.234 36.8861C24.1739 36.846 24.1037 36.8761 24.0837 36.9462Z" fill="#303030" stroke="black" stroke-width="0.2"/>
<path d="M15.0837 40.5445C14.5424 41.3363 14.0814 42.1281 14.0413 42.3085C14.0012 42.539 14.0513 42.7695 14.2317 43.1604C14.5224 43.7518 15.2039 44.8242 15.6449 45.3956C15.9055 45.7163 15.9256 45.7965 15.8354 46.047C15.7452 46.2976 15.7552 46.3277 15.9055 46.3177C16.0058 46.3076 16.0759 46.2776 16.0459 46.2375C16.0258 46.1974 16.0659 46.1473 16.1361 46.1172C16.4167 46.007 16.3165 45.5058 15.8654 44.8443C14.7329 43.1404 14.4823 42.6994 14.5324 42.3786C14.5625 42.2083 14.783 41.7572 15.0335 41.3764C15.6249 40.4542 16.126 39.452 16.086 39.2515C16.0659 39.1613 15.6349 39.7226 15.0837 40.5445Z" fill="#303030" stroke="black" stroke-width="0.2"/>
<path d="M20.3145 39.2816C20.3145 39.5021 21.5172 40.3841 22.4393 40.8351C23.3013 41.2461 25.2056 42.4588 25.346 42.6793C25.4662 42.8598 25.4462 42.8998 24.925 43.5513C24.3737 44.2329 24.3236 44.4835 24.6343 44.8844C24.8148 45.1149 24.905 45.145 25.5063 45.145C25.8772 45.145 26.2881 45.2051 26.4184 45.2753C26.8795 45.5058 26.8995 45.6562 26.5988 46.8489L26.3182 47.9514L26.5086 48.3824C26.6189 48.6129 26.9196 49.0439 27.1701 49.3446C27.7314 49.9961 27.8517 50.1965 27.7715 50.397C27.6813 50.6375 26.7792 51.259 26.3783 51.3692C26.1779 51.4294 26.0476 51.5095 26.0676 51.5496C26.1678 51.7 26.9196 51.5797 27.1401 51.3692C27.2704 51.2489 27.4307 51.1587 27.5009 51.1587C27.5711 51.1587 27.7715 51.0284 27.9319 50.8681C28.4531 50.377 28.3328 49.9259 27.3405 48.7031C26.8695 48.1218 26.8394 47.9113 27.13 46.899C27.4107 45.9067 27.4007 45.4356 27.0699 45.1049C26.7592 44.7942 26.1979 44.6238 25.5965 44.6539C24.8448 44.6939 24.7045 44.3933 25.2357 43.8821C25.8872 43.2607 25.9975 42.6793 25.5364 42.2584C25.1355 41.8775 23.3113 40.8151 22.4293 40.4442C22.0284 40.2738 21.4871 39.9832 21.2265 39.7927C20.7154 39.4219 20.3145 39.1914 20.3145 39.2816Z" fill="#303030" stroke="black" stroke-width="0.2"/>
<path d="M19.3632 39.903C19.6137 40.5044 20.5058 42.1381 20.9468 42.7896C21.8789 44.1728 22.4803 44.724 24.4849 45.9769C25.1965 46.4179 25.4872 46.5482 25.7979 46.5482C26.2088 46.5482 26.6899 46.2275 26.5697 46.027C26.5296 45.9669 26.4795 45.9769 26.4193 46.0571C26.3692 46.1373 26.3291 46.1573 26.3291 46.1072C26.3291 46.0571 26.269 46.0771 26.1988 46.1373C26.1186 46.1974 26.0284 46.2174 25.9984 46.1774C25.9583 46.1473 25.9282 46.1673 25.9282 46.2475C25.9282 46.3477 25.8981 46.3477 25.7678 46.2375C25.6776 46.1673 25.5273 46.0571 25.427 45.9969C24.4047 45.4056 22.4502 43.9422 22.0393 43.4611C21.5883 42.9399 20.3655 41.1258 19.6939 39.9932C19.3632 39.4319 19.1427 39.3718 19.3632 39.903Z" fill="#303030" stroke="black" stroke-width="0.2"/>
<path d="M18.9715 40.9354C19.1319 41.7773 19.8636 43.7919 20.4148 44.8944C21.2467 46.5682 21.7579 47.1696 23.0308 47.9514C24.0031 48.5528 26.3584 50.2567 26.4787 50.4571C26.5088 50.5073 26.4386 50.5975 26.3284 50.6576C26.0678 50.7979 26.0678 50.9483 26.3284 50.9282C26.4386 50.9182 26.5288 50.8781 26.5288 50.828C26.5288 50.7879 26.5589 50.7678 26.609 50.7979C26.6491 50.818 26.7694 50.7779 26.8796 50.6977C27.04 50.5774 27.05 50.5273 26.9498 50.4672C26.8696 50.417 26.8195 50.3569 26.8195 50.3268C26.8295 50.2266 25.8673 49.3546 25.7571 49.3546C25.6969 49.3546 25.6268 49.2945 25.5967 49.2243C25.5265 49.0339 24.1534 48.0115 23.1611 47.4202C22.5197 47.0393 22.1388 46.7186 21.788 46.2876C21.2467 45.6261 20.0039 43.1805 19.5028 41.7873C19.1419 40.785 18.8613 40.324 18.9715 40.9354Z" fill="#303030" stroke="black" stroke-width="0.2"/>
<path d="M9.34021 41.236C9.22995 41.4064 8.74885 41.9076 8.26775 42.3486C7.29553 43.2406 7.12514 43.5714 7.30555 44.2129C7.42583 44.6739 7.65635 45.0147 8.34794 45.7664C9.28007 46.7787 10.8436 49.7255 11.4751 51.6398C11.8359 52.7323 12.0464 54.0053 11.9562 54.6267C11.886 55.1479 11.6054 55.7392 11.2947 56.0199C11.0942 56.2003 10.7334 56.7716 10.8236 56.7716C10.8436 56.7716 10.9539 56.6914 11.0742 56.5912C11.1844 56.4909 11.3949 56.3206 11.5352 56.2203C11.6756 56.1101 11.7958 55.9698 11.7958 55.8996C11.7958 55.8294 11.8259 55.7693 11.876 55.7693C11.9161 55.7693 12.0464 55.619 12.1667 55.4385C12.4373 55.0476 12.5275 54.0654 12.3872 53.0932C12.1967 51.7401 11.425 49.8057 10.2723 47.8011C9.49055 46.448 9.23998 46.0871 8.60853 45.4056C7.90693 44.6539 7.53608 43.9623 7.64633 43.6215C7.6764 43.5113 7.99713 43.1103 8.35796 42.7295C9.17984 41.8775 9.61083 41.2862 9.57073 41.0857C9.55069 40.9754 9.48053 41.0256 9.34021 41.236Z" fill="#303030" stroke="black" stroke-width="0.2"/>
<path d="M19.0618 43.0903C19.3324 44.6037 20.5853 49.2143 21.0564 50.377C21.4473 51.3291 21.9184 52.0508 22.6701 52.8225C23.7726 53.9451 24.5143 54.1356 26.5289 53.8148C28.1526 53.5542 28.8342 53.033 28.8342 52.0708C28.8342 51.6799 28.6538 51.1086 28.6237 51.4093C28.6237 51.4594 28.6036 51.6699 28.5836 51.8603C28.4834 52.7223 28.4934 52.7123 27.9321 52.9829C27.4911 53.2034 25.3161 53.5041 24.7448 53.4239C23.8528 53.3036 22.9708 52.6121 22.1389 51.3792C21.5375 50.4972 21.1366 49.4047 19.8536 45.0949C19.2222 42.99 18.9115 42.1982 19.0618 43.0903Z" fill="#303030" stroke="black" stroke-width="0.2"/>
<path d="M13.8506 47.0694C13.4096 47.32 12.8984 48.1719 12.8984 48.663C12.8984 48.9336 13.1791 49.3847 14.031 50.417C14.5121 51.0184 14.7427 51.5697 14.8529 52.4317C14.9632 53.3538 15.0133 53.5843 15.0834 53.5242C15.2338 53.3638 15.3039 52.2111 15.1937 51.6298C15.0734 50.9683 14.873 50.5774 14.3317 49.946C13.4898 48.9637 13.3896 48.7532 13.5098 48.3122C13.6602 47.761 14.0711 47.3801 14.6124 47.2999C15.1336 47.2197 15.8352 47.3801 17.2584 47.8913C18.4712 48.3223 18.9222 48.3523 19.263 48.0015C19.5136 47.761 19.5938 47.3099 19.4133 47.1997C19.3532 47.1696 19.3131 47.2398 19.3131 47.3801C19.3131 47.5104 19.2229 47.7008 19.1127 47.8011C18.8521 48.0316 18.4712 47.9614 17.068 47.3801C16.1158 46.9892 15.8352 46.919 15.1035 46.8789C14.3518 46.8489 14.2014 46.8689 13.8506 47.0694Z" fill="#303030" stroke="black" stroke-width="0.2"/>
<path d="M7.99703 48.6731C7.68632 49.3847 7.23529 50.7177 7.08494 51.3893C6.90453 52.1711 7.00476 52.5419 7.58609 53.2034C7.85671 53.5141 8.10728 53.875 8.14738 54.0053C8.26765 54.5064 7.27538 56.6012 5.8421 58.8564C4.55916 60.871 4.45894 61.1015 4.3988 61.9434C4.35871 62.5949 4.37875 62.7152 4.63935 63.1963C4.97011 63.8077 5.70178 64.5694 5.77194 64.379C5.79199 64.3088 5.76192 64.2287 5.69176 64.2086C5.63162 64.1886 5.60155 64.1284 5.64164 64.0783C5.67171 64.0282 5.6216 63.9881 5.53139 63.9881C5.44118 63.9881 5.40109 63.938 5.43116 63.8879C5.46123 63.8277 5.44118 63.7876 5.39107 63.7876C5.33093 63.7876 5.28082 63.7175 5.28082 63.6373C5.28082 63.5571 5.24072 63.487 5.20063 63.487C5.03024 63.487 4.7496 62.3143 4.81976 61.9134C4.90997 61.4623 5.45121 60.4199 6.24302 59.2072C7.4157 57.403 8.58838 54.8973 8.58838 54.1857C8.58838 53.7647 8.46811 53.5242 7.92687 52.9428C7.68632 52.6923 7.46582 52.3515 7.42572 52.2011C7.34554 51.9105 7.62618 50.5874 8.05717 49.2243C8.35786 48.2621 8.32779 47.9514 7.99703 48.6731Z" fill="#303030" stroke="black" stroke-width="0.2"/>
<path d="M30.8485 54.3861C30.9988 54.5164 31.4198 54.8372 31.8007 55.1178C33.2239 56.1502 34.2964 57.1424 36.311 59.3074C38.9069 62.0837 39.3179 62.5849 39.6787 63.3366C40.0896 64.2186 40.1197 64.4792 39.8491 65.5016C39.6687 66.1931 39.6486 66.4237 39.7388 66.5139C39.829 66.6041 39.8591 66.6041 39.8591 66.5139C39.8591 66.4437 39.9192 66.2433 39.9894 66.0629C40.0696 65.8824 40.1297 65.712 40.1397 65.6619C40.1498 65.6218 40.2199 65.4615 40.3101 65.2911C40.671 64.5895 40.3903 63.2464 39.6586 62.2541C38.8869 61.2118 34.6372 56.8418 33.5948 56.0199C32.6125 55.2481 31.1792 54.316 30.8385 54.2258L30.5879 54.1556L30.8485 54.3861Z" fill="#303030" stroke="black" stroke-width="0.2"/>
<path d="M22.991 55.5287C22.961 55.629 22.8808 55.9196 22.8206 56.1702C22.7505 56.4208 22.55 56.972 22.3596 57.393C22.0188 58.1447 21.8885 58.6759 21.7582 59.7183C21.7081 60.1192 21.6179 60.2896 21.2571 60.6805C20.816 61.1516 20.806 61.1817 20.5454 62.5348C20.2548 64.0382 20.2046 64.0583 20.0142 62.7252C19.8037 61.2017 19.5431 60.7206 18.7513 60.3698C18.2502 60.1393 17.9896 60.2094 17.0073 60.8108C15.2834 61.8632 14.9727 62.0236 14.4515 62.0637C13.8 62.1138 13.0282 61.8031 12.5972 61.312C12.2464 60.9111 11.8355 60.1192 11.4446 59.0769C11.1138 58.1948 10.7731 57.6235 10.5024 57.4732C10.1516 57.2928 9.7407 57.3529 9.47009 57.6436C9.04912 58.1147 8.93887 58.5356 8.96894 59.5279C9.04912 61.6628 9.06917 61.5024 8.65823 62.1238C8.4277 62.4746 8.15708 62.7553 7.96665 62.8254C7.78623 62.9056 7.70605 62.9858 7.77621 63.0259C7.99671 63.1662 8.75846 62.4847 9.09924 61.8532L9.41997 61.2518L9.2997 60.3297C9.13933 58.9867 9.31974 58.1547 9.84093 57.814C10.0715 57.6636 10.1116 57.6636 10.3321 57.8039C10.5626 57.9543 10.723 58.2951 11.4346 60.1393C11.9658 61.4824 12.7777 62.2642 13.9002 62.4947C14.662 62.655 15.0027 62.5448 16.6064 61.5826C17.3481 61.1416 18.0597 60.7507 18.17 60.7206C18.4506 60.6505 18.9317 60.901 19.1623 61.2418C19.2625 61.3922 19.4229 62.0336 19.5331 62.7252C19.7336 63.9781 20.1445 65.0906 20.5955 65.5617C21.4475 66.4337 21.9587 66.5039 23.3719 65.8925C24.4544 65.4314 25.0758 65.261 25.4867 65.3111C25.7273 65.3312 25.8676 65.4815 26.2886 66.143C26.5692 66.584 26.9802 67.1353 27.2007 67.3658C27.5615 67.7467 27.6617 67.7968 28.0526 67.7968C28.3032 67.7968 28.7642 67.7066 29.085 67.5964C29.8367 67.3358 30.0271 67.3458 31.3702 67.6565C32.7133 67.9672 33.5251 67.9472 34.0964 67.5964C34.2969 67.4761 34.7479 67.025 35.0987 66.5941C36.0108 65.5016 37.1635 64.4892 37.5042 64.4892C38.1457 64.4892 38.727 64.9804 38.9977 65.7622C39.1179 66.113 39.138 66.123 39.1981 65.9125C39.2482 65.7521 39.2282 65.6218 39.1179 65.5016C39.0277 65.4013 38.9576 65.241 38.9576 65.1307C38.9576 65.0205 38.8273 64.8601 38.6569 64.7498C38.4865 64.6596 38.3762 64.5394 38.4063 64.4892C38.4364 64.4391 38.3562 64.379 38.2359 64.3389C38.1056 64.3088 37.835 64.2286 37.6145 64.1685C37.2837 64.0683 37.2236 64.0683 37.1334 64.2186C37.0833 64.3088 36.9931 64.389 36.9329 64.389C36.7425 64.389 34.9484 65.9426 34.9484 66.1029C34.9484 66.2332 33.916 67.1954 33.7757 67.1954C33.7055 67.1954 33.6454 67.2455 33.6454 67.3057C33.6454 67.4661 32.152 67.3558 31.4905 67.1453C30.5784 66.8647 29.6463 66.8446 28.9547 67.0852C27.8521 67.4661 27.7018 67.3959 26.9501 66.1631C26.2785 65.0505 25.9678 64.7899 25.3163 64.7899C24.7952 64.7899 23.9432 65.0505 22.971 65.5116C21.7983 66.0628 21.1969 65.8223 20.5254 64.5193C20.2949 64.0583 20.2648 63.948 20.4051 64.0282C20.4552 64.0583 20.5454 63.948 20.6056 63.7876C20.6557 63.6172 20.6757 63.4869 20.6457 63.4869C20.6156 63.4869 20.6557 63.4068 20.7459 63.3065C20.8962 63.1361 21.217 62.0737 21.217 61.7129C21.217 61.6026 21.3573 61.3922 21.5277 61.2218C21.9988 60.7707 22.1892 60.2997 22.3095 59.3174C22.3696 58.8163 22.54 58.0746 22.7104 57.6235C23.0612 56.6513 23.2516 55.7092 23.1313 55.4886C23.0612 55.3583 23.0411 55.3583 22.991 55.5287Z" fill="#303030" stroke="black" stroke-width="0.2"/>
<path d="M30.8887 56.0299C31.1093 56.2203 31.5202 56.5511 31.7908 56.7616C32.8733 57.5834 34.8177 59.7484 36.4916 61.9635C37.0829 62.7553 37.5941 63.3767 37.6242 63.3466C37.7043 63.2665 37.4437 62.6651 37.2633 62.4847C37.1731 62.4045 37.0929 62.2642 37.0729 62.184C37.0228 61.9534 36.4014 60.9712 35.9002 60.3197C35.0984 59.2873 32.9234 57.0623 32.3721 56.7115C32.0815 56.521 31.5904 56.2103 31.2897 56.0199C30.5881 55.5688 30.3676 55.5789 30.8887 56.0299Z" fill="#303030" stroke="black" stroke-width="0.2"/>
<path d="M29.1348 57.4331C29.1348 57.5935 29.9967 58.9265 30.4277 59.4477C31.7508 61.0313 32.4724 62.6551 32.9936 65.1909C33.2442 66.4237 33.2442 66.4337 33.3644 66.3134C33.5449 66.133 33.4547 64.8 33.2041 63.7876C32.753 61.9835 31.9512 60.5001 30.6182 59.0167C30.2573 58.6258 29.8263 58.0946 29.6359 57.844C29.3352 57.4231 29.1348 57.2627 29.1348 57.4331Z" fill="#303030" stroke="black" stroke-width="0.2"/>
<path d="M26.1987 58.3352C26.0985 58.5056 26.319 60.0391 26.5395 60.6304C26.74 61.2017 26.75 61.332 26.6898 63.3065C26.6097 65.5617 26.6898 65.9626 27.0005 64.9403C27.1609 64.4091 27.2411 63.4068 27.211 62.2842C27.1709 61.0514 27.1409 60.8609 26.8602 60.1794C26.6898 59.7684 26.5194 59.2272 26.4794 58.9766C26.3992 58.4755 26.2789 58.2049 26.1987 58.3352Z" fill="#303030" stroke="black" stroke-width="0.2"/>
<path d="M12.9278 64.2587C12.9679 64.2888 12.9378 64.4191 12.8677 64.5293C12.7875 64.6496 12.577 65.0104 12.3966 65.3412C11.0936 67.7166 10.0111 68.5786 8.98879 68.0474C8.58787 67.8369 8.38741 67.1353 8.38741 65.9325C8.38741 65.0305 8.27716 64.6596 8.13684 65.1006C8.00654 65.4915 8.03661 67.3257 8.17693 67.7267C8.24709 67.9271 8.44755 68.2078 8.62796 68.3481C8.89858 68.5586 9.06897 68.5986 9.60019 68.5986C10.1414 68.5986 10.3218 68.5485 10.7027 68.318C11.6148 67.7267 12.4667 66.5139 12.9679 65.0806C13.1984 64.399 13.1984 64.1886 12.9779 64.1886C12.9178 64.1886 12.8977 64.2186 12.9278 64.2587Z" fill="#303030" stroke="black" stroke-width="0.2"/>
<path d="M18.4111 65.0305C18.4111 65.0605 18.5013 65.3211 18.6016 65.6118C18.8922 66.3836 19.1729 67.5262 19.2932 68.4483C19.3633 68.8893 19.4836 69.7713 19.5738 70.4028C19.7241 71.5153 20.0148 72.4775 20.9169 74.9131C21.2276 75.755 21.2276 75.7751 21.1674 77.1282C21.1173 78.2006 21.1374 78.5715 21.2476 78.8321C21.7187 79.9446 23.7032 80.6863 26.8304 80.9369C28.9653 81.1073 32.6437 80.9168 33.9968 80.556C34.7585 80.3555 36.693 79.4034 36.5326 79.3132C36.4725 79.2731 36.3522 79.2831 36.262 79.3232C36.0816 79.4234 35.7308 79.5537 35.6305 79.5637C35.6005 79.5738 35.5303 79.6038 35.4902 79.6439C35.4501 79.694 35.3399 79.7241 35.2396 79.7241C35.1494 79.7241 35.0392 79.7943 35.0091 79.8845C34.979 79.9647 34.8989 80.0047 34.8487 79.9747C34.7886 79.9346 34.6683 79.9647 34.5881 80.0348C34.508 80.095 34.4178 80.125 34.3877 80.105C34.3576 80.0749 34.1672 80.0849 33.9667 80.135C33.1148 80.3255 31.3507 80.4357 29.0755 80.4357C26.4696 80.4357 25.4873 80.3455 24.054 79.9747C22.8713 79.664 22.3 79.3833 21.9091 78.9423L21.5884 78.5815L21.6485 77.3888C21.7287 75.9154 21.6385 75.4243 21.0271 73.9409C20.2754 72.1167 19.9446 70.8237 19.7542 69.0998C19.6139 67.7667 18.8521 65.251 18.5214 65.0505C18.4612 65.0104 18.4111 65.0004 18.4111 65.0305Z" fill="#303030" stroke="black" stroke-width="0.2"/>
<path d="M5.75224 66.5139C5.39142 67.2756 4.98048 68.2078 4.84016 68.5987C4.07841 70.7035 3.60734 76.1559 4.09846 77.068C4.34903 77.5291 5.08071 78.2106 5.6019 78.4813C6.14314 78.7519 7.09532 79.0225 7.48621 79.0125C7.69669 79.0125 7.67665 78.9824 7.31582 78.822C7.07527 78.7118 6.80465 78.6216 6.71445 78.6015C6.61422 78.5815 6.44383 78.4913 6.3436 78.3911C6.23335 78.3009 6.083 78.2207 6.01284 78.2207C5.94268 78.2207 5.57183 77.92 5.19096 77.5391C4.6397 76.9979 4.49938 76.7874 4.44926 76.4667C4.23878 75.1637 4.59961 71.0342 5.09073 69.2C5.20098 68.7891 5.56181 67.7868 5.89257 66.9749C6.6944 65.0205 6.61422 64.7398 5.75224 66.5139Z" fill="#303030" stroke="black" stroke-width="0.2"/>
<path d="M16.5061 66.0228C16.476 66.0528 16.496 66.7043 16.5461 67.4861C16.6364 68.9895 16.5963 69.4005 16.055 72.5076C15.7944 73.981 15.614 74.5723 14.9525 76.1459C14.752 76.627 14.6017 77.1282 14.6318 77.2484C14.6618 77.4589 14.6719 77.4589 14.752 77.2685C14.8022 77.1582 14.9425 76.9277 15.0628 76.7573C15.5038 76.186 16.1853 74.5723 16.3457 73.7605C16.5361 72.7983 16.8869 70.503 16.9671 69.631C17.0673 68.6788 16.6965 65.8323 16.5061 66.0228Z" fill="#303030" stroke="black" stroke-width="0.2"/>
<path d="M7.1846 66.143C7.1846 66.1731 7.00419 66.995 6.78369 67.9772C6.28254 70.2424 6.23243 70.6533 6.40282 71.1445C6.57321 71.6657 6.92401 71.9062 7.60557 71.9764C8.50763 72.0666 9.43977 71.6356 10.0311 70.8538C10.3719 70.4128 10.3118 70.3025 9.87075 70.5932C9.69034 70.7035 9.59011 70.8037 9.64022 70.8037C9.85071 70.8037 8.5377 71.395 8.1869 71.4552C7.62561 71.5454 6.99417 71.355 6.88392 71.0442C6.73357 70.6634 6.76364 70.3527 7.03426 68.8693C7.35499 67.1353 7.45522 66.0929 7.29486 66.0929C7.23472 66.0929 7.1846 66.113 7.1846 66.143Z" fill="#303030" stroke="black" stroke-width="0.2"/>
<path d="M13.7196 66.8446C13.6895 67.1153 12.8977 69.2101 12.567 69.8615C12.4266 70.1322 11.9756 70.944 11.5546 71.6556C11.1337 72.3673 10.7027 73.2393 10.5824 73.6001C10.4621 73.9609 10.0111 75.0033 9.59015 75.9154C8.49765 78.2106 8.35733 78.8521 8.81838 79.3833C9.03889 79.6339 9.12909 79.6539 10.5022 79.7842C11.294 79.8544 12.3966 80.0048 12.9478 80.115C15.2431 80.5761 16.1953 80.6763 18.3602 80.6663C20.7757 80.6663 22.62 80.546 22.62 80.4057C22.62 80.3556 22.5398 80.3255 22.4496 80.3355C22.3493 80.3455 22.2491 80.3355 22.219 80.3255C22.189 80.3155 21.1366 80.2854 19.8637 80.2754C17.5985 80.2353 15.624 80.0749 14.0504 79.7842C13.6093 79.7041 12.8877 79.5738 12.4467 79.4936C12.0057 79.4134 11.1738 79.3132 10.5924 79.2731C9.19925 79.1728 9.089 79.1328 9.089 78.6416C9.089 78.1305 9.22932 77.7596 9.98104 76.166C10.3218 75.4443 10.7428 74.4821 10.9032 74.011C11.0735 73.54 11.5045 72.5978 11.8754 71.9062C13.1282 69.5609 13.8599 67.6665 13.7697 66.985C13.7497 66.7945 13.7196 66.7344 13.7196 66.8446Z" fill="#303030" stroke="black" stroke-width="0.2"/>
<path d="M39.168 67.2556C39.168 67.3658 39.1981 67.3959 39.2281 67.3157C39.2582 67.2456 39.2482 67.1553 39.2181 67.1253C39.188 67.0852 39.158 67.1453 39.168 67.2556Z" fill="#303030" stroke="black" stroke-width="0.2"/>
<path d="M41.2637 67.2756C41.2637 67.3759 42.0655 67.897 44.3207 69.2702C45.323 69.8816 46.9868 70.944 48.0292 71.6456C50.7855 73.4999 51.888 73.9709 54.504 74.3919C56.2981 74.6826 56.7992 74.7227 56.7992 74.5322C56.7992 74.442 56.7291 74.4019 56.5988 74.442C56.4885 74.4721 56.3983 74.452 56.3983 74.4019C56.3983 74.3618 56.3281 74.3418 56.248 74.3719C56.1678 74.412 56.0375 74.3819 55.9573 74.3217C55.8871 74.2616 55.7969 74.2416 55.7669 74.2817C55.7268 74.3117 55.6366 74.2817 55.5464 74.2115C55.4261 74.1113 55.396 74.1113 55.396 74.2115C55.396 74.3117 55.3659 74.3117 55.2457 74.2115C55.1655 74.1413 55.0953 74.1213 55.0953 74.1614C55.0953 74.2015 55.0352 74.1914 54.975 74.1313C54.9049 74.0812 54.6844 74.001 54.4839 73.9709C53.7923 73.8607 51.7276 73.1892 50.9358 72.8083C50.1139 72.4174 49.6529 72.1367 46.4756 70.072C45.4833 69.4306 44.6414 68.8993 44.6214 68.8993C44.5913 68.8993 43.8596 68.5185 42.9776 68.0474C41.3439 67.1754 41.2637 67.1353 41.2637 67.2756Z" fill="#303030" stroke="black" stroke-width="0.2"/>
<path d="M23.3213 67.9672C23.3213 68.1276 25.2858 70.2524 25.9373 70.8037C26.2981 71.1044 26.9997 71.5554 27.4908 71.796C29.0143 72.5477 29.6057 72.3973 31.3797 70.8338C31.9109 70.3627 32.3419 69.9517 32.3419 69.9117C32.3419 69.8716 32.2718 69.8315 32.1916 69.8315C32.1114 69.8315 32.0412 69.8716 32.0412 69.9217C32.0412 69.9618 32.0112 69.9918 31.9711 69.9918C31.7806 69.9618 31.6303 70.0119 31.6804 70.0921C31.7105 70.1322 31.6303 70.2224 31.5 70.2825C31.3597 70.3426 30.9688 70.6032 30.618 70.8538C29.3852 71.7659 28.9041 71.8862 27.982 71.4752C26.9496 71.0242 26.3181 70.5732 24.9751 69.3303C23.5819 68.0374 23.3213 67.8169 23.3213 67.9672Z" fill="#303030" stroke="black" stroke-width="0.2"/>
<path d="M41.3133 68.5987C41.2832 68.6488 41.2932 68.6989 41.3534 68.6989C41.4035 68.6989 41.5839 68.8192 41.7343 68.9595C42.1552 69.3504 43.4682 70.1823 44.7712 70.8939C46.2145 71.6857 46.8059 72.1267 47.8783 73.2092C48.8505 74.1914 49.7326 74.8028 51.0957 75.4543C52.0378 75.9054 53.6014 76.4165 54.0524 76.4165C54.4433 76.4165 54.3231 76.2361 53.8921 76.166C53.6716 76.1259 53.4912 76.0457 53.4912 75.9856C53.4912 75.9354 53.4611 75.9154 53.421 75.9455C53.3909 75.9856 53.3007 75.9655 53.2306 75.9154C53.1704 75.8553 53.0702 75.8152 53.0301 75.8252C52.98 75.8352 52.5791 75.6748 52.1381 75.4644C51.6971 75.2539 51.3162 75.0735 51.2861 75.0634C51.0155 75.0133 48.7503 73.3595 48.1289 72.7582C46.9562 71.6256 46.4551 71.2848 44.3603 70.2023C43.3179 69.6511 42.3256 69.0998 42.1452 68.9695C41.6441 68.5987 41.3835 68.4784 41.3133 68.5987Z" fill="#303030" stroke="black" stroke-width="0.2"/>
<path d="M34.5976 69.2802C34.5375 69.3203 34.4874 69.4406 34.4774 69.5508C34.4473 69.7914 34.3671 70.1522 34.3471 70.1522C34.337 70.1522 34.317 70.2825 34.2969 70.4529C34.2669 70.6133 34.2268 70.8839 34.1967 71.0543C34.1767 71.2146 34.0965 71.9664 34.0464 72.7081C33.9862 73.4497 33.8559 74.422 33.7457 74.873C33.4851 75.9856 32.8035 77.6694 32.3926 78.2407C31.8714 78.9523 31.5807 79.0726 30.368 79.0726C29.8067 79.0726 29.3256 79.1027 29.2855 79.1428C29.1853 79.243 30.3279 79.4535 30.9292 79.4334C31.5908 79.4234 32.2523 79.1127 32.6632 78.6216C33.3849 77.7596 34.2769 75.324 34.4473 73.8006C34.5475 72.8885 34.758 69.2702 34.7079 69.2301C34.6979 69.2201 34.6478 69.2401 34.5976 69.2802Z" fill="#303030" stroke="black" stroke-width="0.2"/>
<path d="M49.6319 69.5508C49.2511 69.6811 48.6898 69.7914 48.4091 69.7914C48.1185 69.8014 47.8779 69.8415 47.8779 69.8916C47.8779 70.1021 48.8301 70.1322 49.7422 69.9517C50.2433 69.8515 50.8648 69.7914 51.1053 69.8214C51.6265 69.8816 52.4484 70.2725 53.4908 70.9741C54.2224 71.4652 54.7537 71.7058 55.0844 71.7058C55.1947 71.6957 55.1546 71.6256 54.9441 71.4552C54.7837 71.3249 54.6334 71.2247 54.6234 71.2447C54.6033 71.2647 54.4229 71.1244 54.2124 70.934C52.6789 69.5107 51.1153 69.0397 49.6319 69.5508Z" fill="#303030" stroke="black" stroke-width="0.2"/>
<path d="M46.5354 69.8515C47.1869 70.3025 50.0134 71.2948 52.7396 72.0165C53.8321 72.3172 54.0827 72.3472 55.4258 72.3472C56.8891 72.3573 56.9092 72.3573 57.1096 72.6078C58.152 73.9309 59.0541 75.2138 59.1342 75.4844C59.2445 75.8252 59.4851 75.9455 59.455 75.6348C59.4149 75.2539 59.2846 74.8129 59.2044 74.8129C59.1543 74.8129 59.0841 74.7126 59.044 74.5823C58.9839 74.3819 58.7133 73.9509 57.9315 72.8083C57.7611 72.5577 57.4805 72.227 57.3001 72.0566C56.9994 71.7659 56.9593 71.7559 56.2677 71.806C54.7242 71.9162 53.8923 71.8361 52.5392 71.4752C50.3141 70.8839 47.3874 70.0119 47.0867 69.8515C46.9163 69.7713 46.6858 69.7012 46.5555 69.7012H46.335L46.5354 69.8515Z" fill="#303030" stroke="black" stroke-width="0.2"/>
<path d="M41.5643 70.8638C41.8149 71.1144 42.5566 71.7759 43.2181 72.3372C43.8796 72.8985 45.1425 74.0611 46.0245 74.9131C48.1694 76.9979 49.7129 78.0202 50.9859 78.1806L51.3367 78.2307L50.9357 78.0102C50.7152 77.8899 50.5148 77.7596 50.4847 77.7295C50.4546 77.6995 50.3745 77.6594 50.3043 77.6393C50.2341 77.6293 49.9535 77.4589 49.6829 77.2685C49.4022 77.078 49.1817 76.9478 49.1817 76.9878C49.1817 77.038 49.1416 77.0179 49.1015 76.9578C49.0615 76.8976 48.6706 76.5569 48.2295 76.2061C47.7885 75.8653 46.8664 75.0334 46.1748 74.3719C45.4833 73.7003 44.3807 72.7481 43.7092 72.237C43.0477 71.7358 42.2659 71.1144 41.9652 70.8638C41.2536 70.2625 40.983 70.2625 41.5643 70.8638Z" fill="#303030" stroke="black" stroke-width="0.2"/>
<path d="M37.4541 71.0843C37.4541 71.1344 37.5443 71.2848 37.6646 71.4151C37.9953 71.7859 38.8172 73.2292 39.3083 74.2816C40.3407 76.4867 42.0947 78.2006 43.5982 78.4712C44.0592 78.5614 44.0893 78.4011 43.6483 78.2106C43.4679 78.1305 43.2975 78.0703 43.2674 78.0703C43.087 78.0703 42.0847 77.1983 41.3931 76.4466C40.5011 75.4744 40.1202 74.9031 39.4286 73.56C38.7872 72.3172 37.4541 70.6433 37.4541 71.0843Z" fill="#303030" stroke="black" stroke-width="0.2"/>
<path d="M36.2515 72.3572C36.2013 72.5778 36.2013 74.1113 36.2515 74.1113C36.2815 74.1113 36.3016 74.442 36.3016 74.8329C36.3116 75.6849 36.5922 77.1582 36.8729 77.8097C37.1736 78.5314 37.5544 79.0125 38.0255 79.2831C38.6369 79.6439 40.4511 79.7542 43.6183 79.6239C47.1564 79.4735 49.7523 79.4936 50.9351 79.674C51.4863 79.7642 52.1679 79.8544 52.4385 79.8845L52.9396 79.9346L52.5888 79.7842C51.2257 79.2029 48.2589 78.9624 44.4402 79.1227C41.754 79.233 39.9399 79.2029 38.8574 79.0125C37.6346 78.802 37.1034 77.6895 36.6423 74.3719C36.4419 72.8985 36.2915 72.1568 36.2515 72.3572Z" fill="#303030" stroke="black" stroke-width="0.2"/>
<path d="M58.1622 74.863C57.9818 75.0434 58.0319 75.3942 58.3226 76.1559C58.5732 76.7974 58.5932 77.4689 58.3827 77.6794C58.2324 77.8298 58.1923 77.8298 57.9117 77.6293C57.7413 77.509 57.601 77.4389 57.601 77.489C57.601 77.5291 57.5208 77.479 57.4205 77.3587C57.3303 77.2484 57.0697 77.0179 56.8492 76.8475C56.0073 76.2061 55.456 76.0657 55.015 76.3764C54.7143 76.5869 54.7244 77.2083 55.0451 78.0904C55.1754 78.4612 55.2756 78.7819 55.2556 78.792C55.2355 78.812 54.7845 78.7318 54.2433 78.6216C53.0505 78.381 52.4893 78.361 52.4893 78.5715C52.4893 78.6617 52.5795 78.7218 52.7198 78.7218C52.8401 78.7218 53.2811 78.812 53.692 78.9323C54.103 79.0425 54.7143 79.1428 55.0451 79.1528C55.6365 79.1728 55.6465 79.1728 55.6766 78.8822C55.6966 78.7218 55.6164 78.2908 55.4961 77.92C55.0952 76.6872 55.3358 76.4566 56.328 77.1081C56.6688 77.3286 57.2 77.6193 57.5007 77.7496L58.052 78.0002L57.4506 78.1204C56.7791 78.2608 56.298 78.5013 56.298 78.7018C56.298 78.792 56.3481 78.802 56.4884 78.7218C56.5987 78.6717 57.0096 78.5815 57.4105 78.5214C58.2524 78.4011 58.5632 78.2708 58.8338 77.91C59.0743 77.5792 59.0843 76.7373 58.8538 76.1058C58.5832 75.3641 58.5632 75.2739 58.6834 75.3541C58.7536 75.3942 58.8538 75.3942 58.9039 75.3641C58.9641 75.324 58.8739 75.1737 58.6935 75.0033C58.3326 74.6625 58.3627 74.6725 58.1622 74.863Z" fill="#303030" stroke="black" stroke-width="0.2"/>
</svg>
